<?xml version="1.0" encoding="utf-8"?>
<!-- Generator: Adobe Illustrator 28.2.0, SVG Export Plug-In . SVG Version: 6.00 Build 0)  -->
<svg version="1.1" id="Camada_1" xmlns="http://www.w3.org/2000/svg" xmlns:xlink="http://www.w3.org/1999/xlink" x="0px" y="0px"
	 viewBox="0 0 839 384" style="enable-background:new 0 0 839 384;" xml:space="preserve">
<style type="text/css">
	.st0{fill:#144579;}
</style>
<g id="Camada_1-2">
	
		<image style="overflow:visible;enable-background:new    ;" width="3528" height="944" xlink:href="8FD5D4EC.png"  transform="matrix(0.1872 0 0 0.19 111 93.73)">
	</image>
</g>
<path class="st0" d="M319.7,225.8l0.6-0.7c0.3,0.3,0.7,0.6,1.1,0.8s0.8,0.3,1.3,0.3l0,0c0.6,0,1-0.1,1.3-0.4c0.3-0.2,0.5-0.6,0.5-1
	l0,0c0-0.2,0-0.4-0.1-0.5c-0.1-0.1-0.2-0.3-0.3-0.4c-0.1-0.1-0.3-0.2-0.4-0.3s-0.4-0.2-0.6-0.3l0,0l-1.2-0.5
	c-0.2-0.1-0.4-0.2-0.6-0.3c-0.2-0.1-0.4-0.3-0.6-0.4s-0.3-0.4-0.4-0.6c-0.1-0.2-0.1-0.5-0.1-0.8l0,0c0-0.3,0.1-0.6,0.2-0.9
	c0.1-0.3,0.3-0.5,0.6-0.7c0.2-0.2,0.5-0.4,0.9-0.5c0.3-0.1,0.7-0.2,1.1-0.2l0,0c0.5,0,1,0.1,1.4,0.3s0.8,0.4,1.1,0.7l0,0l-0.6,0.7
	c-0.3-0.2-0.5-0.4-0.9-0.6s-0.7-0.2-1.1-0.2l0,0c-0.5,0-0.9,0.1-1.1,0.3s-0.4,0.5-0.4,0.9l0,0c0,0.2,0,0.4,0.1,0.5s0.2,0.3,0.3,0.4
	c0.1,0.1,0.3,0.2,0.5,0.3c0.2,0.1,0.3,0.1,0.5,0.2l0,0l1.2,0.5c0.2,0.1,0.5,0.2,0.7,0.3s0.4,0.3,0.5,0.4c0.2,0.2,0.3,0.4,0.4,0.6
	c0.1,0.2,0.1,0.5,0.1,0.8l0,0c0,0.3-0.1,0.6-0.2,0.9c-0.1,0.3-0.3,0.5-0.6,0.7c-0.2,0.2-0.6,0.4-0.9,0.5s-0.8,0.2-1.2,0.2l0,0
	c-0.6,0-1.1-0.1-1.7-0.3C320.5,226.5,320.1,226.2,319.7,225.8L319.7,225.8L319.7,225.8z M329.4,223.5v-4.8h1.1v4.8
	c0,0.5,0,0.9,0.1,1.2c0.1,0.3,0.2,0.6,0.4,0.8c0.2,0.2,0.4,0.3,0.6,0.4c0.2,0.1,0.5,0.1,0.8,0.1l0,0c0.3,0,0.6-0.1,0.8-0.1
	c0.2-0.1,0.5-0.2,0.6-0.4c0.2-0.2,0.3-0.5,0.4-0.8s0.1-0.8,0.1-1.2l0,0v-4.8h1v4.8c0,0.7-0.1,1.2-0.2,1.7c-0.2,0.4-0.4,0.8-0.6,1.1
	c-0.3,0.3-0.6,0.5-1,0.6c-0.4,0.1-0.8,0.2-1.2,0.2l0,0c-0.4,0-0.8-0.1-1.2-0.2c-0.4-0.1-0.7-0.3-1-0.6c-0.3-0.3-0.5-0.6-0.6-1.1
	C329.4,224.7,329.4,224.2,329.4,223.5L329.4,223.5L329.4,223.5z M340.8,223.6h2.6l-0.4-1.2c-0.2-0.5-0.3-0.9-0.4-1.4
	c-0.1-0.4-0.3-0.9-0.4-1.4h0c-0.1,0.5-0.3,0.9-0.4,1.4c-0.1,0.5-0.3,0.9-0.4,1.4l0,0L340.8,223.6L340.8,223.6z M344.5,226.9
	l-0.8-2.5h-3.1l-0.8,2.5h-1.1l2.9-8.2h1.2l2.9,8.2H344.5L344.5,226.9z M353.8,226.9v-8.2h1.1v8.2H353.8z M359.4,226.9v-8.2h1.1
	l3.1,5.1l0.9,1.7h0c0-0.4-0.1-0.9-0.1-1.3s0-0.9,0-1.3l0,0v-4.2h1v8.2h-1.1l-3.1-5.2l-0.9-1.7h0c0,0.4,0.1,0.8,0.1,1.3
	c0,0.4,0,0.9,0,1.3l0,0v4.3H359.4z M371.8,226.9v-7.3h-2.6v-0.9h6.2v0.9h-2.6v7.3H371.8L371.8,226.9z M379.1,226.9v-8.2h4.9v0.9
	h-3.8v2.6h3.2v0.9h-3.2v3h4v0.9L379.1,226.9L379.1,226.9z M388.1,226.9v-8.2h1.1v7.3h3.7v0.9H388.1z M396.6,226.9v-8.2h1.1v8.2
	H396.6z M401.7,222.8L401.7,222.8c0-0.6,0.1-1.2,0.3-1.8c0.2-0.5,0.5-1,0.8-1.3s0.8-0.6,1.2-0.8c0.5-0.2,1-0.3,1.6-0.3l0,0
	c0.6,0,1.1,0.1,1.5,0.3c0.4,0.2,0.7,0.4,1,0.7l0,0l-0.6,0.7c-0.2-0.2-0.5-0.4-0.8-0.5c-0.3-0.1-0.6-0.2-1.1-0.2l0,0
	c-0.4,0-0.8,0.1-1.2,0.2s-0.6,0.4-0.9,0.7c-0.2,0.3-0.4,0.6-0.6,1s-0.2,0.9-0.2,1.4l0,0c0,0.5,0.1,1,0.2,1.4
	c0.1,0.4,0.3,0.8,0.5,1.1c0.2,0.3,0.5,0.5,0.9,0.7c0.4,0.2,0.8,0.2,1.2,0.2l0,0c0.3,0,0.6-0.1,0.9-0.1c0.3-0.1,0.5-0.2,0.7-0.4l0,0
	v-2.1h-1.8v-0.9h2.8v3.4c-0.3,0.3-0.6,0.5-1.1,0.7c-0.5,0.2-1,0.3-1.5,0.3l0,0c-0.6,0-1.1-0.1-1.5-0.3c-0.5-0.2-0.9-0.5-1.2-0.8
	c-0.3-0.4-0.6-0.8-0.8-1.3C401.8,224.1,401.7,223.4,401.7,222.8L401.7,222.8z M412.4,226.9v-8.2h4.9v0.9h-3.8v2.6h3.2v0.9h-3.2v3h4
	v0.9L412.4,226.9L412.4,226.9z M414,218.1h-0.9l1.2-1.4h1l1.2,1.4h-0.9l-0.9-0.9h0L414,218.1z M421.5,226.9v-8.2h1.1l3.1,5.1
	l0.9,1.7h0c0-0.4,0-0.9-0.1-1.3c0-0.4,0-0.9,0-1.3l0,0v-4.2h1v8.2h-1.1l-3.1-5.2l-0.9-1.7h0c0,0.4,0.1,0.8,0.1,1.3
	c0,0.4,0,0.9,0,1.3l0,0v4.3H421.5z M431.5,222.8L431.5,222.8c0-0.6,0.1-1.2,0.3-1.8s0.5-1,0.8-1.3s0.7-0.6,1.2-0.8
	c0.5-0.2,1-0.3,1.5-0.3l0,0c0.5,0,1,0.1,1.4,0.3c0.4,0.2,0.7,0.4,1,0.7l0,0l-0.6,0.7c-0.2-0.2-0.5-0.4-0.8-0.6s-0.6-0.2-1-0.2l0,0
	c-0.4,0-0.8,0.1-1.1,0.2s-0.6,0.4-0.9,0.7c-0.2,0.3-0.4,0.6-0.5,1c-0.1,0.4-0.2,0.9-0.2,1.4l0,0c0,0.5,0.1,1,0.2,1.4
	c0.1,0.4,0.3,0.8,0.5,1.1c0.2,0.3,0.5,0.5,0.8,0.7c0.3,0.2,0.7,0.2,1.1,0.2l0,0c0.4,0,0.8-0.1,1.1-0.2c0.3-0.2,0.6-0.4,0.9-0.7l0,0
	l0.6,0.6c-0.3,0.4-0.7,0.7-1.1,0.9s-0.9,0.3-1.5,0.3l0,0c-0.5,0-1-0.1-1.5-0.3s-0.9-0.5-1.2-0.8s-0.6-0.8-0.8-1.3
	C431.6,224.1,431.5,223.5,431.5,222.8L431.5,222.8z M441.6,226.9v-8.2h1.1v8.2H441.6z M448.3,223.6h2.6l-0.4-1.2
	c-0.1-0.5-0.3-0.9-0.4-1.4c-0.1-0.4-0.3-0.9-0.4-1.4h0c-0.1,0.5-0.3,0.9-0.4,1.4c-0.1,0.5-0.3,0.9-0.4,1.4l0,0L448.3,223.6
	L448.3,223.6z M451.9,226.9l-0.8-2.5H448l-0.8,2.5h-1.1l2.9-8.2h1.2l2.9,8.2H451.9L451.9,226.9z M462.3,223.6h2.6l-0.4-1.2
	c-0.2-0.5-0.3-0.9-0.4-1.4c-0.1-0.4-0.3-0.9-0.4-1.4h0c-0.1,0.5-0.3,0.9-0.4,1.4c-0.1,0.5-0.3,0.9-0.4,1.4l0,0L462.3,223.6
	L462.3,223.6z M466,226.9l-0.8-2.5h-3.1l-0.8,2.5h-1.1l2.9-8.2h1.2l2.9,8.2H466L466,226.9z M471.6,219.5v3.1h1.4
	c0.7,0,1.2-0.1,1.5-0.4c0.4-0.3,0.5-0.7,0.5-1.2l0,0c0-0.5-0.2-0.9-0.5-1.1c-0.4-0.2-0.9-0.3-1.5-0.3H471.6z M476.4,226.9h-1.2
	l-2.1-3.5h-1.5v3.5h-1.1v-8.2h2.7c0.4,0,0.8,0,1.2,0.1c0.4,0.1,0.7,0.2,0.9,0.4c0.3,0.2,0.5,0.4,0.6,0.7c0.1,0.3,0.2,0.6,0.2,1.1
	l0,0c0,0.6-0.2,1.1-0.5,1.5c-0.4,0.4-0.8,0.6-1.4,0.8l0,0L476.4,226.9L476.4,226.9z M481.8,226.9v-7.3h-2.6v-0.9h6.2v0.9h-2.6v7.3
	H481.8z M489.1,226.9v-8.2h1.1v8.2H489.1z M494.7,226.9v-8.2h4.9v0.9h-3.8v2.8h3.2v0.9h-3.2v3.7H494.7z M503.3,226.9v-8.2h1.1v8.2
	H503.3z M508.4,222.8L508.4,222.8c0-0.6,0.1-1.2,0.3-1.8s0.5-1,0.8-1.3s0.7-0.6,1.2-0.8c0.5-0.2,1-0.3,1.5-0.3l0,0
	c0.5,0,1,0.1,1.4,0.3c0.4,0.2,0.7,0.4,1,0.7l0,0l-0.6,0.7c-0.2-0.2-0.5-0.4-0.8-0.6c-0.3-0.1-0.6-0.2-1-0.2l0,0
	c-0.4,0-0.8,0.1-1.1,0.2c-0.3,0.1-0.6,0.4-0.9,0.7c-0.2,0.3-0.4,0.6-0.5,1s-0.2,0.9-0.2,1.4l0,0c0,0.5,0.1,1,0.2,1.4
	c0.1,0.4,0.3,0.8,0.5,1.1s0.5,0.5,0.8,0.7c0.3,0.2,0.7,0.2,1.1,0.2l0,0c0.4,0,0.8-0.1,1.1-0.2c0.3-0.2,0.6-0.4,0.9-0.7l0,0l0.6,0.6
	c-0.3,0.4-0.7,0.7-1.2,0.9c-0.4,0.2-0.9,0.3-1.5,0.3l0,0c-0.5,0-1-0.1-1.5-0.3s-0.9-0.5-1.2-0.8c-0.3-0.4-0.6-0.8-0.8-1.3
	C508.5,224.1,508.4,223.5,508.4,222.8L508.4,222.8z M518.5,226.9v-8.2h1.1v8.2H518.5z M525.2,223.6h2.6l-0.4-1.2
	c-0.2-0.5-0.3-0.9-0.4-1.4c-0.1-0.4-0.3-0.9-0.4-1.4h0c-0.1,0.5-0.3,0.9-0.4,1.4c-0.1,0.5-0.3,0.9-0.4,1.4l0,0L525.2,223.6
	L525.2,223.6z M528.8,226.9l-0.8-2.5h-3.1l-0.8,2.5H523l2.9-8.2h1.2l2.9,8.2H528.8L528.8,226.9z M533.3,226.9v-8.2h1.1v7.3h3.7v0.9
	H533.3z"/>
</svg>
